<svg width="186" height="158" viewBox="0 0 186 158" fill="none" xmlns="http://www.w3.org/2000/svg">
<path d="M44.2851 42.1115C36.2283 42.1115 29.697 35.5802 29.697 27.5234C29.697 19.4666 36.2283 12.9353 44.2851 12.9353C52.3418 12.9353 58.8732 19.4666 58.8732 27.5234C58.8732 35.5802 52.3418 42.1115 44.2851 42.1115Z" fill="black"/>
<path d="M84.0708 54.0472C78.9437 54.0472 74.7874 49.8909 74.7874 44.7639C74.7874 39.6368 78.9437 35.4805 84.0708 35.4805C89.1978 35.4805 93.3541 39.6368 93.3541 44.7639C93.3541 49.8909 89.1978 54.0472 84.0708 54.0472Z" fill="black"/>
<path d="M121.204 30.1758C113.147 30.1758 106.616 23.6445 106.616 15.5877C106.616 7.53093 113.147 0.999626 121.204 0.999626C129.261 0.999626 135.792 7.53093 135.792 15.5877C135.792 23.6445 129.261 30.1758 121.204 30.1758Z" fill="black"/>
<path d="M11.8887 65.9829C11.8887 65.9829 0.0815251 69.6646 1.27917 79.2448C1.58533 81.6938 3.37546 84.7789 6.58432 88.0758C6.58432 83.2233 12.3025 79.2448 12.3025 79.2448C12.069 75.0465 11.9129 70.5806 11.8887 65.9829Z" fill="black"/>
<path d="M42.9589 55.3734C24.4443 48.7425 11.8887 65.9829 11.8887 65.9829C11.9129 70.5806 12.069 75.0465 12.3025 79.2448C12.5801 84.2366 12.967 88.85 13.3716 92.8565C13.3716 92.8565 27.6123 104.44 84.0708 104.44C121.29 104.44 148.959 89.4552 163.493 79.2426C163.493 79.2426 151.139 39.457 124.615 47.4162C106.959 52.7143 103.964 83.2233 103.964 83.2233C103.964 83.2233 100.007 65.9829 84.0708 65.9829C70.8089 65.9829 62.8517 80.571 62.8517 80.571C62.8517 80.571 54.8946 59.6481 42.9589 55.3734Z" fill="black"/>
<path d="M11.8887 65.9829C11.8887 65.9829 24.4443 48.7425 42.9589 55.3734C54.8946 59.6481 62.8517 80.571 62.8517 80.571C62.8517 80.571 70.8089 65.9829 84.0708 65.9829C100.008 65.9829 103.964 83.2233 103.964 83.2233C103.964 83.2233 106.959 52.7143 124.615 47.4162C151.139 39.457 163.493 79.2426 163.493 79.2426C148.959 89.4552 121.29 104.44 84.0708 104.44M11.8887 65.9829C11.8887 65.9829 0.0815251 69.6646 1.27917 79.2448M11.8887 65.9829C11.9129 70.5806 12.069 75.0465 12.3025 79.2448M1.27917 79.2448C1.58533 81.6938 3.37546 84.7789 6.58432 88.0758M1.27917 79.2448C1.27917 79.2448 1.84684 120.354 84.0708 120.354C157.77 120.354 184.293 80.5688 184.293 80.5688L171.032 84.5481L175.01 69.96C175.01 69.96 140.529 104.44 84.0708 104.44M12.3025 79.2448C12.3025 79.2448 6.58432 83.2233 6.58432 88.0758M12.3025 79.2448C12.5801 84.2366 12.967 88.85 13.3716 92.8565M6.58432 88.0758C8.38802 89.929 10.6561 91.5095 13.3716 92.8565M13.3716 92.8565C13.3716 92.8565 27.6123 104.44 84.0708 104.44M84.0708 54.0472C78.9437 54.0472 74.7874 49.8909 74.7874 44.7639C74.7874 39.6368 78.9437 35.4805 84.0708 35.4805C89.1978 35.4805 93.3541 39.6368 93.3541 44.7639C93.3541 49.8909 89.1978 54.0472 84.0708 54.0472ZM44.2851 42.1115C36.2283 42.1115 29.697 35.5802 29.697 27.5234C29.697 19.4666 36.2283 12.9353 44.2851 12.9353C52.3418 12.9353 58.8732 19.4666 58.8732 27.5234C58.8732 35.5802 52.3418 42.1115 44.2851 42.1115ZM121.204 30.1758C113.147 30.1758 106.616 23.6445 106.616 15.5877C106.616 7.53093 113.147 0.999625 121.204 0.999625C129.261 0.999625 135.792 7.53093 135.792 15.5877C135.792 23.6445 129.261 30.1758 121.204 30.1758Z" stroke="black"/>
<path d="M29.2326 146.29V133.09H32.0246C33.31 133.09 34.3073 133.378 35.0166 133.954C35.7313 134.525 36.0886 135.349 36.0886 136.426C36.0886 137.877 35.454 138.869 34.1846 139.402C35.166 139.541 35.9233 139.901 36.4566 140.482C36.99 141.058 37.2566 141.815 37.2566 142.754C37.2566 143.495 37.0913 144.13 36.7606 144.658C36.43 145.186 35.9553 145.591 35.3366 145.874C34.718 146.151 33.9793 146.29 33.1206 146.29H29.2326ZM30.4486 139.026H31.8086C32.8113 139.026 33.582 138.813 34.1206 138.386C34.6593 137.954 34.9286 137.341 34.9286 136.546C34.9286 135.741 34.6593 135.125 34.1206 134.698C33.582 134.271 32.8113 134.058 31.8086 134.058H30.4486V139.026ZM30.4486 145.298H32.8006C33.83 145.298 34.622 145.077 35.1766 144.634C35.7366 144.186 36.0166 143.549 36.0166 142.722C36.0166 141.895 35.734 141.253 35.1686 140.794C34.6086 140.33 33.8193 140.098 32.8006 140.098H30.4486V145.298ZM43.6476 146.546C42.7943 146.546 42.0236 146.362 41.3356 145.994C40.653 145.626 40.1116 145.114 39.7116 144.458C39.3116 143.802 39.1116 143.047 39.1116 142.194C39.1116 141.335 39.3116 140.581 39.7116 139.93C40.1116 139.274 40.653 138.762 41.3356 138.394C42.0183 138.026 42.789 137.842 43.6476 137.842C44.501 137.842 45.269 138.026 45.9516 138.394C46.6396 138.762 47.1836 139.274 47.5836 139.93C47.9836 140.581 48.1836 141.335 48.1836 142.194C48.1836 143.047 47.9836 143.802 47.5836 144.458C47.1836 145.114 46.6396 145.626 45.9516 145.994C45.269 146.362 44.501 146.546 43.6476 146.546ZM43.6476 145.506C44.2876 145.506 44.8583 145.365 45.3596 145.082C45.861 144.799 46.2556 144.41 46.5436 143.914C46.8316 143.413 46.9756 142.839 46.9756 142.194C46.9756 141.549 46.8316 140.978 46.5436 140.482C46.2556 139.981 45.861 139.589 45.3596 139.306C44.8583 139.023 44.2876 138.882 43.6476 138.882C43.0076 138.882 42.437 139.023 41.9356 139.306C41.4343 139.589 41.0396 139.981 40.7516 140.482C40.4636 140.978 40.3196 141.549 40.3196 142.194C40.3196 142.834 40.4636 143.405 40.7516 143.906C41.0396 144.407 41.4343 144.799 41.9356 145.082C42.437 145.365 43.0076 145.506 43.6476 145.506ZM50.97 146.29V138.098H52.138V139.218C52.362 138.834 52.7087 138.509 53.178 138.242C53.6473 137.975 54.2207 137.842 54.898 137.842C55.5327 137.842 56.0793 137.973 56.538 138.234C56.9967 138.495 57.3487 138.877 57.594 139.378C57.8393 139.874 57.962 140.474 57.962 141.178V146.29H56.794V141.402C56.794 140.554 56.5967 139.909 56.202 139.466C55.8073 139.018 55.25 138.794 54.53 138.794C54.0287 138.794 53.5993 138.895 53.242 139.098C52.89 139.295 52.618 139.559 52.426 139.89C52.234 140.215 52.138 140.57 52.138 140.954V146.29H50.97ZM64.7473 146.546C63.9793 146.546 63.2859 146.359 62.6673 145.986C62.0539 145.613 61.5659 145.098 61.2033 144.442C60.8459 143.786 60.6673 143.037 60.6673 142.194C60.6673 141.357 60.8459 140.613 61.2033 139.962C61.5606 139.306 62.0459 138.789 62.6593 138.41C63.2779 138.031 63.9793 137.842 64.7633 137.842C65.4939 137.842 66.1553 138.015 66.7473 138.362C67.3393 138.709 67.8033 139.189 68.1393 139.802V132.522H69.3073V146.29H68.1393V144.562C67.7926 145.181 67.3206 145.666 66.7233 146.018C66.1313 146.37 65.4726 146.546 64.7473 146.546ZM65.0273 145.53C65.6406 145.53 66.1846 145.389 66.6593 145.106C67.1339 144.818 67.5073 144.423 67.7793 143.922C68.0513 143.415 68.1873 142.842 68.1873 142.202C68.1873 141.551 68.0513 140.975 67.7793 140.474C67.5126 139.967 67.1393 139.573 66.6593 139.29C66.1846 139.002 65.6406 138.858 65.0273 138.858C64.4193 138.858 63.8779 139.002 63.4033 139.29C62.9286 139.573 62.5553 139.967 62.2833 140.474C62.0113 140.975 61.8753 141.551 61.8753 142.202C61.8753 142.847 62.0086 143.421 62.2753 143.922C62.5473 144.423 62.9206 144.818 63.3953 145.106C63.8753 145.389 64.4193 145.53 65.0273 145.53ZM72.7433 146.29V138.098H73.9113V146.29H72.7433ZM73.3353 136.458C73.1913 136.458 73.0606 136.423 72.9433 136.354C72.8313 136.285 72.7406 136.191 72.6713 136.074C72.6019 135.957 72.5673 135.829 72.5673 135.69C72.5673 135.551 72.6019 135.426 72.6713 135.314C72.7406 135.197 72.8313 135.103 72.9433 135.034C73.0606 134.965 73.1913 134.93 73.3353 134.93C73.4739 134.93 73.5993 134.965 73.7113 135.034C73.8233 135.103 73.9139 135.194 73.9833 135.306C74.0579 135.418 74.0953 135.546 74.0953 135.69C74.0953 135.829 74.0579 135.957 73.9833 136.074C73.9139 136.191 73.8233 136.285 73.7113 136.354C73.5993 136.423 73.4739 136.458 73.3353 136.458ZM77.3606 146.29V138.098H78.5286V139.218C78.7526 138.834 79.0993 138.509 79.5686 138.242C80.038 137.975 80.6113 137.842 81.2886 137.842C81.9233 137.842 82.47 137.973 82.9286 138.234C83.3873 138.495 83.7393 138.877 83.9846 139.378C84.23 139.874 84.3526 140.474 84.3526 141.178V146.29H83.1846V141.402C83.1846 140.554 82.9873 139.909 82.5926 139.466C82.198 139.018 81.6406 138.794 80.9206 138.794C80.4193 138.794 79.99 138.895 79.6326 139.098C79.2806 139.295 79.0086 139.559 78.8166 139.89C78.6246 140.215 78.5286 140.57 78.5286 140.954V146.29H77.3606ZM91.2579 150.69C90.2232 150.69 89.3485 150.487 88.6339 150.082C87.9192 149.677 87.3885 149.085 87.0419 148.306L88.0259 147.85C88.2765 148.415 88.6925 148.863 89.2739 149.194C89.8552 149.53 90.5165 149.698 91.2579 149.698C91.8819 149.698 92.4392 149.573 92.9299 149.322C93.4259 149.077 93.8152 148.719 94.0979 148.25C94.3859 147.781 94.5299 147.218 94.5299 146.562V144.562C94.1885 145.181 93.7192 145.666 93.1219 146.018C92.5299 146.37 91.8685 146.546 91.1379 146.546C90.3752 146.546 89.6845 146.359 89.0659 145.986C88.4525 145.613 87.9645 145.098 87.6019 144.442C87.2445 143.786 87.0659 143.037 87.0659 142.194C87.0659 141.357 87.2445 140.613 87.6019 139.962C87.9592 139.306 88.4445 138.789 89.0579 138.41C89.6765 138.031 90.3779 137.842 91.1619 137.842C91.8872 137.842 92.5459 138.015 93.1379 138.362C93.7352 138.709 94.1992 139.189 94.5299 139.802V138.098H95.6979V146.514C95.6979 147.421 95.5192 148.183 95.1619 148.802C94.8045 149.426 94.2925 149.895 93.6259 150.21C92.9645 150.53 92.1752 150.69 91.2579 150.69ZM91.4179 145.53C92.0365 145.53 92.5832 145.389 93.0579 145.106C93.5325 144.818 93.9059 144.423 94.1779 143.922C94.4499 143.415 94.5859 142.842 94.5859 142.202C94.5859 141.551 94.4499 140.975 94.1779 140.474C93.9059 139.967 93.5325 139.573 93.0579 139.29C92.5832 139.002 92.0392 138.858 91.4259 138.858C90.8125 138.858 90.2685 139.002 89.7939 139.29C89.3192 139.573 88.9459 139.967 88.6739 140.474C88.4019 140.975 88.2659 141.551 88.2659 142.202C88.2659 142.842 88.3992 143.415 88.6659 143.922C88.9379 144.423 89.3112 144.818 89.7859 145.106C90.2659 145.389 90.8099 145.53 91.4179 145.53ZM103.683 146.29V133.09H110.363V134.162H104.419L104.899 133.802V139.858L104.419 139.138H109.995V140.21H104.419L104.899 139.49V146.29H103.683ZM116.185 146.546C115.417 146.546 114.723 146.359 114.105 145.986C113.491 145.607 113.003 145.09 112.641 144.434C112.283 143.778 112.105 143.029 112.105 142.186C112.105 141.354 112.281 140.613 112.633 139.962C112.99 139.306 113.475 138.789 114.089 138.41C114.707 138.031 115.406 137.842 116.185 137.842C116.926 137.842 117.598 138.015 118.201 138.362C118.803 138.709 119.262 139.189 119.577 139.802V138.098H120.745V146.29H119.577V144.562C119.225 145.181 118.753 145.666 118.161 146.018C117.569 146.37 116.91 146.546 116.185 146.546ZM116.473 145.53C117.086 145.53 117.627 145.389 118.097 145.106C118.571 144.818 118.945 144.423 119.217 143.922C119.489 143.415 119.625 142.839 119.625 142.194C119.625 141.543 119.489 140.967 119.217 140.466C118.95 139.965 118.579 139.573 118.105 139.29C117.63 139.002 117.086 138.858 116.473 138.858C115.859 138.858 115.315 139.002 114.841 139.29C114.366 139.573 113.993 139.965 113.721 140.466C113.449 140.967 113.313 141.543 113.313 142.194C113.313 142.839 113.449 143.415 113.721 143.922C113.993 144.423 114.366 144.818 114.841 145.106C115.315 145.389 115.859 145.53 116.473 145.53ZM124.189 146.29V138.098H125.357V139.218C125.682 138.765 126.071 138.423 126.525 138.194C126.978 137.959 127.485 137.842 128.045 137.842C128.717 137.842 129.301 137.997 129.797 138.306C130.298 138.615 130.645 139.037 130.837 139.57C131.151 139.047 131.551 138.629 132.037 138.314C132.527 137.999 133.109 137.842 133.781 137.842C134.362 137.842 134.879 137.962 135.333 138.202C135.786 138.437 136.141 138.783 136.397 139.242C136.658 139.695 136.789 140.25 136.789 140.906V146.29H135.621V141.234C135.621 140.487 135.426 139.895 135.037 139.458C134.647 139.021 134.127 138.802 133.477 138.802C133.029 138.802 132.623 138.901 132.261 139.098C131.898 139.295 131.61 139.551 131.397 139.866C131.183 140.175 131.077 140.495 131.077 140.826V146.29H129.909V141.114C129.909 140.405 129.714 139.842 129.325 139.426C128.941 139.01 128.431 138.802 127.797 138.802C127.349 138.802 126.938 138.898 126.565 139.09C126.197 139.277 125.903 139.519 125.685 139.818C125.466 140.117 125.357 140.423 125.357 140.738V146.29H124.189ZM140.087 146.29V138.098H141.255V146.29H140.087ZM140.679 136.458C140.535 136.458 140.404 136.423 140.287 136.354C140.175 136.285 140.084 136.191 140.015 136.074C139.946 135.957 139.911 135.829 139.911 135.69C139.911 135.551 139.946 135.426 140.015 135.314C140.084 135.197 140.175 135.103 140.287 135.034C140.404 134.965 140.535 134.93 140.679 134.93C140.818 134.93 140.943 134.965 141.055 135.034C141.167 135.103 141.258 135.194 141.327 135.306C141.402 135.418 141.439 135.546 141.439 135.69C141.439 135.829 141.402 135.957 141.327 136.074C141.258 136.191 141.167 136.285 141.055 136.354C140.943 136.423 140.818 136.458 140.679 136.458ZM144.704 146.29V132.53H145.872V146.29H144.704ZM149.884 150.45L151.9 146.09L148.004 138.098H149.324L152.564 144.89L155.508 138.098H156.828L151.204 150.45H149.884Z" fill="black"/>
</svg>
