<svg width="70" height="70" viewBox="0 0 70 70" fill="none" xmlns="http://www.w3.org/2000/svg">
<circle cx="35" cy="35" r="35" fill="#589BF7"/>
<mask id="mask0_201_3006" style="mask-type:alpha" maskUnits="userSpaceOnUse" x="0" y="0" width="70" height="70">
<circle cx="35" cy="35" r="35" fill="white"/>
</mask>
<g mask="url(#mask0_201_3006)">
<path d="M10.7858 132.279C28.6689 136.865 63.715 123.243 63.715 123.243C63.715 123.243 61.13 50.7865 58.5626 48.6545C56.0417 46.5611 8.3183 51.3105 -0.37742 60.5751C-5.06296 65.5673 9.06827 111.179 10.7858 132.279Z" fill="#FFC562"/>
<mask id="mask1_201_3006" style="mask-type:alpha" maskUnits="userSpaceOnUse" x="-2" y="48" width="66" height="86">
<path fill-rule="evenodd" clip-rule="evenodd" d="M10.7858 132.279C28.6689 136.865 63.715 123.243 63.715 123.243C63.715 123.243 61.13 50.7865 58.5626 48.6545C56.0417 46.5611 8.3183 51.3105 -0.37742 60.5751C-5.06296 65.5673 9.06827 111.179 10.7858 132.279Z" fill="white"/>
</mask>
<g mask="url(#mask1_201_3006)">
<path d="M56.8309 69.6997C60.7415 103.125 33.3424 103.405 33.3424 103.405C33.3424 103.405 43.163 113.204 44.8854 113.296C46.6078 113.387 72.8607 94.5807 72.8607 94.5807L63.715 74.1557L56.8309 69.6997Z" fill="#D89D35"/>
<path d="M4.40652 80.2295C17.2017 69.1213 12.4545 115.541 33.3424 103.405C54.2303 91.2688 64.9946 114.368 64.9946 114.368C64.9946 114.368 25.4138 132.609 43.3714 129.99C61.329 127.372 -5.91325 146.755 -5.91325 146.755L0.283697 76.1704" fill="#D89D35"/>
</g>
<path d="M56.3076 69.791L60.5254 94.0457L27.157 107.295C24.4581 116.986 29.2426 125.451 29.2426 125.451C29.2426 125.451 73.2839 113.919 76.2282 111.711C79.1724 109.503 68.5322 48.2998 57.272 48.2998" fill="#FFC562"/>
<path d="M46.6126 12.9764C45.1473 11.8069 43.2751 11.1375 41.3309 10.9596L24.5503 9.42335C17.4384 8.7723 11.8342 14.8032 13.7662 21.0282L20.133 41.542C20.133 41.542 30.7875 46.2958 44.962 32.2459C55.0026 22.2937 50.2429 15.8744 46.6126 12.9764Z" fill="#4B4D5C"/>
<path d="M39.9361 50.4456L38.7472 29.8057L24.1883 33.3555L22.871 50.1213L34.2978 57.9587" fill="#FF9763"/>
<path d="M31.7323 39.7946C36.7676 41.393 43.6874 42.6969 45.3317 40.6662C49.7795 35.1732 47.405 19.1303 41.8623 15.603C42.8488 26.247 32.0379 29.5837 26.3507 30.5977L26.3758 33.154" fill="#FF9763"/>
<path d="M30.7693 30.1788C23.1405 21.7204 16.9609 32.3287 27.376 34.7723L30.7693 30.1788Z" fill="#FF9763"/>
<path d="M43.4385 25.8498C44.0295 25.7718 44.5719 26.1876 44.65 26.7785L44.8887 28.5858C44.9668 29.1767 44.551 29.7191 43.96 29.7972C43.6763 29.8347 43.3892 29.7579 43.162 29.5837C42.9348 29.4096 42.7861 29.1523 42.7486 28.8685L42.5099 27.0613C42.4318 26.4703 42.8476 25.928 43.4386 25.8499L43.4385 25.8498Z" fill="#190000"/>
<path d="M43.9179 22.1441C40.6667 22.4278 40.1243 23.8627 42.1682 23.818C44.2122 23.7732 46.042 21.9588 43.9179 22.1441Z" fill="#190000"/>
<path d="M46.5988 27.5459C50.8706 29.5496 49.9624 33.8893 47.1002 33.265L46.5988 27.5459Z" fill="#FF9763"/>
<ellipse opacity="0.27" cx="37.1169" cy="30.7082" rx="2.81842" ry="2.61639" fill="#E84B23"/>
<path d="M39.9363 32.6396C41.5449 34.574 43.6847 34.0731 43.6847 34.0731" stroke="#993443" stroke-width="3.65863" stroke-linecap="round" stroke-linejoin="round"/>
<path d="M27.9624 30.1005C27.5699 29.3881 26.6746 29.0667 25.9036 29.2635C25.4882 29.3743 25.1306 29.6389 24.9032 30.0038C24.8437 30.1061 24.7933 30.2136 24.7528 30.3248C24.7268 30.3868 24.7061 30.4509 24.691 30.5165C24.6456 30.7004 24.629 30.8902 24.6418 31.0793C24.6855 31.5386 24.851 32.0066 25.2189 32.3093C25.3629 32.4452 25.5517 32.5234 25.7496 32.5292C25.9483 32.5277 26.1387 32.4489 26.2802 32.3093C26.4206 32.1683 26.4995 31.9776 26.5 31.7787C26.502 31.5793 26.4226 31.3877 26.2802 31.248C26.2282 31.2052 26.1807 31.1572 26.1384 31.1047L26.2558 31.2565C26.2027 31.1876 26.1584 31.1124 26.1237 31.0326L26.1994 31.2119C26.1607 31.1184 26.1342 31.0203 26.1205 30.9201L26.1473 31.1196C26.135 31.0187 26.1351 30.9166 26.1475 30.8157L26.1207 31.0152C26.1345 30.9151 26.1612 30.8171 26.2001 30.7238L26.1245 30.9031C26.1567 30.8296 26.1972 30.76 26.2452 30.6956L26.1278 30.8475C26.1774 30.7838 26.2347 30.7265 26.2985 30.6771L26.1466 30.7945C26.2048 30.7515 26.2674 30.7151 26.3335 30.6858L26.1542 30.7614C26.2388 30.7259 26.3276 30.7013 26.4184 30.6882L26.2189 30.7151C26.3238 30.7016 26.4301 30.7021 26.5349 30.7164L26.3354 30.6896C26.4337 30.7044 26.5299 30.7309 26.6219 30.7687L26.4426 30.693C26.5273 30.7293 26.6073 30.7755 26.681 30.8308L26.5291 30.7134C26.5962 30.7657 26.6566 30.8262 26.7088 30.8934L26.5915 30.7415C26.619 30.7786 26.644 30.8176 26.6664 30.8581C26.8012 31.0905 27.0501 31.233 27.3188 31.2319C27.5875 31.2307 27.8351 31.086 27.9679 30.8524C28.1008 30.6189 28.0987 30.3321 27.9624 30.1005L27.9624 30.1005Z" fill="#373947"/>
<path d="M33.6663 15.1366C33.7076 15.2975 33.7402 15.4596 33.767 15.6235C33.7899 15.7636 33.7545 15.4998 33.7634 15.5965C33.7672 15.6378 33.7725 15.6789 33.7763 15.7202C33.7837 15.8027 33.7891 15.8854 33.7924 15.9683C33.7986 16.1257 33.7974 16.2832 33.7886 16.4407C33.784 16.5235 33.7774 16.6062 33.7687 16.6887C33.7671 16.7052 33.7653 16.7217 33.7633 16.7382C33.7564 16.7965 33.7601 16.7712 33.7744 16.6621C33.7567 16.6805 33.7596 16.7608 33.7556 16.7851C33.7029 17.1044 33.6194 17.4179 33.5064 17.7212C33.4919 17.7601 33.4758 17.7983 33.4614 17.8372C33.4273 17.9295 33.5392 17.6655 33.4693 17.8182C33.4347 17.8936 33.4001 17.9688 33.3625 18.0427C33.2874 18.1908 33.2041 18.3341 33.1147 18.4738C32.9091 18.8322 33.0289 19.2893 33.3839 19.5007C33.743 19.7006 34.1959 19.5819 34.4107 19.2314C35.2515 17.8933 35.5057 16.2685 35.1137 14.7376C35.0023 14.3394 34.5899 14.1063 34.1913 14.2161C33.7927 14.326 33.558 14.7376 33.6663 15.1366L33.6663 15.1366Z" fill="#373947"/>
<path d="M18.3235 21.9382L18.167 22.7208C18.1358 22.8175 18.1312 22.9209 18.1536 23.02C18.1579 23.1193 18.1886 23.2156 18.2426 23.2991C18.3477 23.4625 18.5062 23.5843 18.6911 23.644L18.8906 23.6708C19.2284 23.6709 19.5246 23.4454 19.6143 23.1198L19.7708 22.3372C19.802 22.2404 19.8066 22.1371 19.7842 22.0379C19.7799 21.9387 19.7492 21.8423 19.6952 21.7589C19.5901 21.5955 19.4316 21.4736 19.2467 21.414L19.0472 21.3872C18.7094 21.3871 18.4132 21.6126 18.3235 21.9382Z" fill="#373947"/>
<path d="M34.9329 60.9068C34.226 59.686 35.8713 57.647 35.8713 57.647L22.2031 47.3433C22.2031 47.3433 17.4127 50.754 17.2018 52.6603C17.2017 52.6603 35.4683 61.8317 34.9329 60.9068Z" fill="#F0F3FC"/>
<path d="M37.8118 60.1781C37.8118 60.1781 37.2212 57.9001 35.8713 57.647L39.8571 46.6325C41.5745 45.748 41.8105 49.3212 41.8105 49.3212L37.8118 60.1781Z" fill="#F0F3FC"/>
<path d="M47.8448 67.1566H47.8396C47.8396 66.662 46.3165 66.2612 44.4377 66.2612C42.5589 66.2612 41.0357 66.662 41.0357 67.1566H41.0305L40.6493 85.5521C40.6359 86.1971 40.9313 86.8097 41.4442 87.201C41.789 87.5867 42.9966 87.8719 44.4377 87.8719C45.8788 87.8719 47.0863 87.5867 47.4311 87.201C47.9441 86.8097 48.2394 86.1971 48.226 85.5521L47.8448 67.1566Z" fill="#F0F3FC"/>
<ellipse cx="44.4377" cy="67.1565" rx="3.40196" ry="0.895294" fill="#F0F3FC"/>
<path d="M7.19524 82.527L11.786 109.176L30.224 101.815C34.6813 105.25 35.0084 117.845 35.0084 117.845C35.0084 117.845 11.7372 141.053 3.68924 131.749C-10.4596 115.392 -7.59608 64.6888 0.0228124 60.1782" fill="#FFC562"/>
<circle cx="36.6573" cy="67.1941" r="0.93284" fill="#FFC562"/>
</g>
</svg>
