<svg width="32" height="28" viewBox="0 0 32 28" fill="none" xmlns="http://www.w3.org/2000/svg">
<g clip-path="url(#clip0_201_3865)">
<path d="M31.2 11.3818H28V7.89092C28 7.41092 27.64 7.0182 27.2 7.0182H25.6C25.16 7.0182 24.8 7.41092 24.8 7.89092V11.3818H21.6C21.16 11.3818 20.8 11.7746 20.8 12.2546V14C20.8 14.48 21.16 14.8727 21.6 14.8727H24.8V18.3637C24.8 18.8437 25.16 19.2364 25.6 19.2364H27.2C27.64 19.2364 28 18.8437 28 18.3637V14.8727H31.2C31.64 14.8727 32 14.48 32 14V12.2546C32 11.7746 31.64 11.3818 31.2 11.3818ZM11.2 14C14.735 14 17.6 10.8746 17.6 7.0182C17.6 3.16183 14.735 0.036377 11.2 0.036377C7.665 0.036377 4.8 3.16183 4.8 7.0182C4.8 10.8746 7.665 14 11.2 14ZM15.68 15.7455H14.845C13.735 16.3018 12.5 16.6182 11.2 16.6182C9.9 16.6182 8.67 16.3018 7.555 15.7455H6.72C3.01 15.7455 0 19.0291 0 23.0764V25.3455C0 26.7909 1.075 27.9637 2.4 27.9637H20C21.325 27.9637 22.4 26.7909 22.4 25.3455V23.0764C22.4 19.0291 19.39 15.7455 15.68 15.7455Z" fill="#808080"/>
</g>
<defs>
<clipPath id="clip0_201_3865">
<rect width="32" height="27.9273" fill="white" transform="translate(0 0.036377)"/>
</clipPath>
</defs>
</svg>
