<svg width="70" height="70" viewBox="0 0 70 70" fill="none" xmlns="http://www.w3.org/2000/svg">
<path d="M58.4718 48.0471C54.9609 43.75 52.4822 41.5625 52.4822 29.7158C52.4822 18.8672 46.9423 15.0021 42.3828 13.125C41.7771 12.8762 41.207 12.3047 41.0224 11.6826C40.2226 8.96055 37.9804 6.5625 34.9999 6.5625C32.0195 6.5625 29.7759 8.96191 28.9843 11.6854C28.7998 12.3143 28.2296 12.8762 27.624 13.125C23.0589 15.0049 17.5246 18.8563 17.5246 29.7158C17.5177 41.5625 15.039 43.75 11.5281 48.0471C10.0734 49.8271 11.3476 52.5 13.8919 52.5H56.1216C58.6523 52.5 59.9183 49.8189 58.4718 48.0471Z" stroke="black" stroke-width="3" stroke-linecap="round" stroke-linejoin="round"/>
<path d="M43.75 52.5V54.6875C43.75 57.0081 42.8281 59.2337 41.1872 60.8747C39.5462 62.5156 37.3206 63.4375 35 63.4375C32.6794 63.4375 30.4538 62.5156 28.8128 60.8747C27.1719 59.2337 26.25 57.0081 26.25 54.6875V52.5" stroke="black" stroke-width="3" stroke-linecap="round" stroke-linejoin="round"/>
</svg>
