<svg width="32" height="42" viewBox="0 0 32 42" fill="none" xmlns="http://www.w3.org/2000/svg">
<g clip-path="url(#clip0_201_4805)">
<path d="M24 20.3541V22.6145C24 23.1473 23.55 23.5832 23 23.5832H9C8.45 23.5832 8 23.1473 8 22.6145V20.3541C8 19.8213 8.45 19.3853 9 19.3853H23C23.55 19.3853 24 19.8213 24 20.3541ZM23 26.1666H9C8.45 26.1666 8 26.6025 8 27.1353V29.3957C8 29.9285 8.45 30.3645 9 30.3645H23C23.55 30.3645 24 29.9285 24 29.3957V27.1353C24 26.6025 23.55 26.1666 23 26.1666ZM32 10.9814V37.7916C32 39.9309 30.2083 41.6665 28 41.6665H4C1.79167 41.6665 0 39.9309 0 37.7916V4.20825C0 2.06893 1.79167 0.333252 4 0.333252H21.0083C22.0667 0.333252 23.0833 0.74497 23.8333 1.47153L30.825 8.2447C31.575 8.96319 32 9.95616 32 10.9814ZM21.3333 4.52309V10.6666H27.675L21.3333 4.52309ZM28 37.7916V14.5416H19.3333C18.225 14.5416 17.3333 13.6778 17.3333 12.6041V4.20825H4V37.7916H28Z" fill="#808080"/>
</g>
<defs>
<clipPath id="clip0_201_4805">
<rect width="32" height="41.3333" fill="white" transform="translate(0 0.333252)"/>
</clipPath>
</defs>
</svg>
