<svg width="32" height="46" viewBox="0 0 32 46" fill="none" xmlns="http://www.w3.org/2000/svg">
<g clip-path="url(#clip0_201_4808)">
<path d="M16 7.1875C11.1873 7.1875 7.27273 11.0562 7.27273 15.8125C7.27273 16.6067 7.92364 17.25 8.72727 17.25C9.53091 17.25 10.1818 16.6067 10.1818 15.8125C10.1818 12.641 12.7927 10.0625 16 10.0625C16.8036 10.0625 17.4545 9.41922 17.4545 8.625C17.4545 7.83078 16.8036 7.1875 16 7.1875ZM8.73273 41.2535C8.73273 41.5366 8.81727 41.8124 8.97636 42.0478L11.2045 45.3576C11.4745 45.7583 11.9291 45.9991 12.4155 45.9991H19.5836C20.0709 45.9991 20.5255 45.7583 20.7945 45.3576L23.0227 42.0478C23.1809 41.8124 23.2655 41.5357 23.2664 41.2535L23.2709 37.3741H8.72909L8.73273 41.2535ZM16 0C6.70182 0 0 7.45433 0 15.8125C0 19.7989 1.49545 23.4357 3.96 26.2146C5.47273 27.9207 7.84546 31.4974 8.72546 34.4946V34.5H13.0891V34.4892C13.0882 34.0607 13.0236 33.6348 12.8936 33.2251C12.3855 31.625 10.8191 27.4059 7.24182 23.372C5.37455 21.2669 4.37636 18.5968 4.36818 15.8125C4.35 9.1964 9.79273 4.3125 16 4.3125C22.4164 4.3125 27.6364 9.47133 27.6364 15.8125C27.6364 18.595 26.6145 21.2795 24.7591 23.372C21.2036 27.3799 19.63 31.59 19.1136 33.2062C18.9804 33.6218 18.9123 34.0551 18.9118 34.491V34.5H23.2755V34.4955C24.1555 31.4974 26.5282 27.9207 28.0409 26.2155C30.5045 23.4357 32 19.7989 32 15.8125C32 7.07969 24.8364 0 16 0Z" fill="#808080"/>
</g>
<defs>
<clipPath id="clip0_201_4808">
<rect width="32" height="46" fill="white"/>
</clipPath>
</defs>
</svg>
