<svg width="186" height="121" viewBox="0 0 186 121" fill="none" xmlns="http://www.w3.org/2000/svg">
<path d="M44.2848 42.1117C36.2281 42.1117 29.6968 35.5804 29.6968 27.5236C29.6968 19.4669 36.2281 12.9356 44.2848 12.9356C52.3416 12.9356 58.8729 19.4669 58.8729 27.5236C58.8729 35.5804 52.3416 42.1117 44.2848 42.1117Z" fill="black"/>
<path d="M84.0705 54.0475C78.9435 54.0475 74.7872 49.8911 74.7872 44.7641C74.7872 39.6371 78.9435 35.4808 84.0705 35.4808C89.1976 35.4808 93.3539 39.6371 93.3539 44.7641C93.3539 49.8911 89.1976 54.0475 84.0705 54.0475Z" fill="black"/>
<path d="M121.204 30.176C113.147 30.176 106.616 23.6447 106.616 15.5879C106.616 7.53117 113.147 0.99987 121.204 0.99987C129.261 0.99987 135.792 7.53117 135.792 15.5879C135.792 23.6447 129.261 30.176 121.204 30.176Z" fill="black"/>
<path d="M11.8885 65.9832C11.8885 65.9832 0.0812961 69.6649 1.27894 79.245C1.5851 81.6941 3.37523 84.7791 6.58409 88.076C6.58409 83.2236 12.3023 79.245 12.3023 79.245C12.0688 75.0467 11.9127 70.5808 11.8885 65.9832Z" fill="black"/>
<path d="M42.9587 55.3736C24.4441 48.7427 11.8885 65.9832 11.8885 65.9832C11.9127 70.5808 12.0688 75.0467 12.3023 79.245C12.5798 84.2368 12.9668 88.8502 13.3714 92.8568C13.3714 92.8568 27.6121 104.44 84.0705 104.44C121.29 104.44 148.959 89.4555 163.493 79.2429C163.493 79.2429 151.139 39.4572 124.615 47.4165C106.959 52.7145 103.963 83.2236 103.963 83.2236C103.963 83.2236 100.007 65.9832 84.0705 65.9832C70.8086 65.9832 62.8515 80.5712 62.8515 80.5712C62.8515 80.5712 54.8944 59.6484 42.9587 55.3736Z" fill="black"/>
<path d="M11.8885 65.9832C11.8885 65.9832 24.4441 48.7427 42.9587 55.3736C54.8944 59.6484 62.8515 80.5712 62.8515 80.5712C62.8515 80.5712 70.8086 65.9832 84.0705 65.9832C100.007 65.9832 103.963 83.2236 103.963 83.2236C103.963 83.2236 106.959 52.7145 124.615 47.4165C151.139 39.4572 163.493 79.2429 163.493 79.2429C148.959 89.4555 121.29 104.44 84.0705 104.44M11.8885 65.9832C11.8885 65.9832 0.0812961 69.6649 1.27894 79.245M11.8885 65.9832C11.9127 70.5808 12.0688 75.0467 12.3023 79.245M1.27894 79.245C1.5851 81.6941 3.37523 84.7791 6.58409 88.076M1.27894 79.245C1.27894 79.245 1.84661 120.355 84.0705 120.355C157.769 120.355 184.293 80.5691 184.293 80.5691L171.031 84.5483L175.01 69.9603C175.01 69.9603 140.529 104.44 84.0705 104.44M12.3023 79.245C12.3023 79.245 6.58409 83.2236 6.58409 88.076M12.3023 79.245C12.5798 84.2368 12.9668 88.8502 13.3714 92.8568M6.58409 88.076C8.38779 89.9292 10.6559 91.5097 13.3714 92.8568M13.3714 92.8568C13.3714 92.8568 27.6121 104.44 84.0705 104.44M84.0705 54.0475C78.9435 54.0475 74.7872 49.8911 74.7872 44.7641C74.7872 39.6371 78.9435 35.4808 84.0705 35.4808C89.1976 35.4808 93.3539 39.6371 93.3539 44.7641C93.3539 49.8911 89.1976 54.0475 84.0705 54.0475ZM44.2848 42.1117C36.2281 42.1117 29.6968 35.5804 29.6968 27.5236C29.6968 19.4669 36.2281 12.9356 44.2848 12.9356C52.3416 12.9356 58.8729 19.4669 58.8729 27.5236C58.8729 35.5804 52.3416 42.1117 44.2848 42.1117ZM121.204 30.176C113.147 30.176 106.616 23.6447 106.616 15.5879C106.616 7.53117 113.147 0.99987 121.204 0.99987C129.261 0.99987 135.792 7.53117 135.792 15.5879C135.792 23.6447 129.261 30.176 121.204 30.176Z" stroke="black"/>
</svg>
